<?xml version="1.0" standalone="no"?>
<!DOCTYPE svg PUBLIC "-//W3C//DTD SVG 20010904//EN"
 "http://www.w3.org/TR/2001/REC-SVG-20010904/DTD/svg10.dtd">
<svg version="1.0" xmlns="http://www.w3.org/2000/svg"
 width="1024.000000pt" height="404.000000pt" viewBox="0 0 1024.000000 404.000000"
 preserveAspectRatio="xMidYMid meet">

<g transform="translate(0.000000,404.000000) scale(0.100000,-0.100000)"
fill="#000000" stroke="none">
<path d="M2416 3595 c-88 -23 -171 -72 -252 -150 -40 -38 -310 -317 -600 -620
-338 -353 -533 -564 -545 -590 -59 -128 28 -279 170 -294 l56 -6 6 -250 c8
-322 17 -385 74 -547 86 -239 277 -458 530 -606 126 -74 343 -151 471 -167 35
-4 22 2 -41 19 -509 137 -853 478 -930 921 -15 87 -17 142 -11 418 l6 317 -80
0 c-51 0 -91 5 -109 15 -37 19 -64 76 -56 116 8 37 1150 1230 1217 1271 129
79 273 85 418 17 60 -28 114 -80 672 -636 334 -334 612 -619 619 -634 16 -39
4 -91 -27 -120 -22 -21 -37 -24 -117 -27 l-92 -4 3 -338 c3 -269 0 -356 -12
-427 -48 -279 -162 -507 -346 -693 -213 -215 -479 -329 -815 -350 l-130 -8
155 3 c218 6 359 39 535 126 324 160 566 466 659 834 32 126 46 247 46 396 0
64 3 170 6 236 l7 121 54 4 c137 12 223 162 168 294 -9 22 -67 90 -139 163
l-124 126 -12 360 c-13 401 -15 416 -80 447 -31 15 -58 16 -240 9 -126 -5
-214 -12 -227 -20 -34 -18 -53 -63 -53 -127 l0 -57 -177 175 c-190 186 -253
235 -348 269 -79 28 -227 34 -309 14z m1268 -294 c50 -5 73 -13 83 -27 13 -16
14 -63 8 -314 -4 -162 -10 -303 -14 -312 -5 -14 -59 35 -256 232 l-249 249 3
58 c3 59 21 107 43 116 20 8 305 7 382 -2z"/>
<path d="M2432 2635 c-37 -16 -53 -44 -54 -94 -1 -55 28 -108 99 -178 86 -86
103 -85 192 5 80 80 105 128 98 184 -11 85 -86 114 -162 62 l-38 -25 -22 21
c-32 30 -76 40 -113 25z"/>
<path d="M2873 2270 c-96 -48 -166 -126 -228 -254 l-53 -110 -33 70 c-39 83
-127 175 -196 206 -33 15 -75 23 -135 26 -77 4 -92 2 -142 -21 -43 -20 -62
-36 -84 -71 -31 -51 -52 -62 -136 -70 -32 -4 -63 -9 -67 -12 -25 -15 5 -163
44 -219 50 -70 100 -95 191 -95 63 0 66 -1 72 -26 12 -46 -4 -275 -25 -359
-20 -82 -54 -173 -79 -212 -8 -13 -31 -27 -52 -33 -22 -6 -51 -25 -69 -45 -57
-65 -34 -161 46 -194 19 -8 93 -11 223 -9 187 3 195 4 195 23 0 19 -8 20 -203
25 -199 5 -204 6 -223 29 -32 39 -23 83 22 106 49 26 78 19 121 -27 35 -38 40
-40 54 -26 14 14 14 18 0 46 -9 17 -27 39 -41 50 l-25 20 24 54 c30 68 61 173
76 258 15 80 15 305 1 343 -10 26 -13 27 -87 27 -93 0 -147 26 -182 88 -28 50
-28 60 2 83 14 11 27 28 31 38 3 12 19 21 40 25 32 6 52 24 98 90 25 36 72 58
124 58 60 0 101 -19 118 -53 24 -44 18 -70 -30 -143 -73 -112 -81 -178 -27
-229 54 -51 147 -44 197 14 13 17 32 54 40 84 16 52 15 55 -7 97 l-22 43 -6
-60 c-11 -100 -50 -155 -111 -155 -83 0 -92 63 -24 166 53 79 58 97 53 159 -2
25 0 45 4 45 5 0 27 -17 50 -37 49 -45 96 -116 128 -194 l23 -57 -71 -189
c-128 -341 -173 -535 -143 -626 60 -179 293 -236 426 -102 71 71 89 154 60
289 -15 73 -129 418 -163 496 l-20 45 -12 -30 c-15 -39 -13 -45 64 -270 112
-328 117 -405 31 -490 -53 -54 -118 -72 -190 -54 -85 22 -155 109 -155 197 0
86 82 349 210 673 93 233 115 278 168 345 35 45 122 114 143 114 4 0 -2 -17
-14 -38 -31 -58 -21 -72 58 -72 82 0 130 -19 153 -62 9 -18 32 -48 50 -66 17
-19 32 -44 32 -56 0 -12 5 -27 11 -33 14 -14 -1 -43 -41 -77 -35 -29 -87 -46
-143 -46 -41 0 -61 -24 -36 -44 11 -8 14 -41 15 -136 0 -178 39 -338 109 -455
19 -32 35 -59 35 -60 0 -2 -13 -17 -30 -33 -31 -31 -40 -77 -17 -85 6 -2 28
13 48 34 40 43 70 49 119 24 49 -25 52 -92 7 -118 -15 -8 -89 -14 -222 -17
-192 -5 -200 -6 -200 -25 0 -19 8 -20 203 -23 172 -2 208 0 238 14 41 20 64
59 64 109 0 68 -36 107 -125 133 -91 26 -179 290 -173 518 l3 108 53 16 c67
19 123 65 151 124 36 78 25 126 -34 146 -26 9 -41 24 -62 61 -32 59 -84 94
-155 104 -46 7 -59 17 -38 30 6 3 17 20 26 36 33 64 -26 77 -123 29z"/>
<path d="M6861 2184 c-15 -19 -21 -41 -21 -75 l0 -49 -141 0 -141 0 -29 -29
c-51 -52 -30 -114 46 -131 22 -5 90 -10 151 -10 l111 0 7 -682 c6 -631 8 -685
25 -707 9 -14 29 -28 43 -32 35 -9 86 15 98 47 7 18 8 248 4 700 l-7 672 137
4 c137 3 138 3 162 31 32 38 31 72 -5 108 l-29 29 -130 0 -129 0 -7 49 c-9 68
-37 101 -86 101 -30 0 -43 -6 -59 -26z"/>
<path d="M7870 2154 c-147 -38 -296 -146 -345 -249 -48 -102 -48 -237 -1 -341
36 -77 108 -149 254 -250 154 -106 224 -175 260 -251 23 -50 27 -70 26 -148 0
-103 -26 -176 -82 -231 -52 -53 -95 -67 -181 -62 -94 6 -143 29 -202 98 -55
63 -100 75 -143 39 -37 -32 -37 -76 -1 -129 84 -121 225 -186 389 -178 279 12
454 302 372 614 -35 132 -126 236 -331 379 -146 101 -184 136 -209 190 -24 50
-25 149 -3 191 46 89 174 162 316 179 92 12 129 77 80 139 -18 23 -27 26 -82
25 -34 0 -87 -7 -117 -15z"/>
<path d="M5750 2150 c-63 -3 -122 -9 -130 -13 -42 -20 -42 -19 -51 -793 -6
-471 -6 -752 1 -768 21 -56 35 -59 330 -54 254 3 271 5 297 24 47 35 41 123
-11 141 -12 4 -120 6 -240 4 l-219 -3 6 173 c4 96 7 215 7 266 l0 91 140 4
c129 3 141 5 162 25 29 29 28 87 -1 117 -20 19 -35 21 -161 24 l-140 4 0 247
c0 137 3 269 6 293 l6 46 70 7 c39 3 148 6 244 6 168 0 175 1 201 23 35 30 37
86 5 119 -22 21 -30 22 -215 23 -105 1 -244 -2 -307 -6z"/>
<path d="M4594 2141 c-53 -9 -92 -35 -105 -69 -8 -19 -9 -263 -4 -787 7 -823
5 -794 61 -816 32 -12 90 13 101 44 4 12 8 94 8 182 l0 160 75 6 c334 27 587
280 607 608 7 111 -14 209 -67 320 -73 151 -233 286 -400 335 -63 19 -215 28
-276 17z m261 -190 c222 -78 353 -319 301 -553 -17 -77 -64 -168 -114 -222
-76 -81 -224 -146 -333 -146 l-59 0 0 476 0 477 73 -6 c39 -3 99 -15 132 -26z"/>
<path d="M8853 2128 c-40 -19 -47 -57 -27 -145 22 -96 22 -243 0 -336 -30
-128 -104 -237 -176 -258 -33 -10 -43 -9 -72 8 -42 24 -93 100 -113 166 -40
134 -41 241 -3 395 23 98 16 132 -34 153 -97 40 -158 -92 -158 -340 0 -72 7
-156 15 -196 18 -87 72 -197 125 -258 110 -124 280 -136 404 -26 l38 33 -5
-195 c-5 -197 -12 -241 -53 -320 -34 -68 -79 -120 -132 -155 -77 -52 -92 -114
-35 -152 41 -26 88 -18 151 24 68 48 125 118 168 209 67 142 68 145 72 630 3
446 -3 582 -34 685 -22 75 -73 106 -131 78z"/>
<path d="M2099 2036 c-36 -18 -30 -39 15 -48 46 -10 50 -7 42 25 -7 31 -26 39
-57 23z"/>
<path d="M2986 2008 c-21 -30 -12 -38 37 -34 30 2 41 7 39 17 -10 42 -52 52
-76 17z"/>
<path d="M2393 353 c9 -2 23 -2 30 0 6 3 -1 5 -18 5 -16 0 -22 -2 -12 -5z"/>
</g>
</svg>
